<svg width="150" height="150" viewBox="0 0 150 150" fill="none" xmlns="http://www.w3.org/2000/svg">
<circle cx="75" cy="75" r="74.5" fill="#DE0000" stroke="#DE0000"/>
<path d="M84.8011 120.383H65.1988L33.0255 83.0966L44.9574 59.8721L49.8579 29.8295L72.8693 46.0227H77.9829L100.781 29.8295L105.469 59.8721L117.187 83.0966L84.8011 120.383Z" fill="black" stroke="black"/>
<path d="M96.0937 40.2699L88.4233 54.7585L99.5028 59.6591L96.0937 40.2699Z" fill="white" stroke="black"/>
<path d="M77.5568 79.4744L75.213 85.2272L72.2301 79.4744L58.3807 66.4772L42.4005 76.0653L40.0568 82.4573L49.6449 93.3238L54.5454 87.7841L57.1022 101.42L67.9687 113.565L73.0824 115.483V113.565L67.9687 107.173L70.9517 105.043H79.4744L82.6704 107.173L76.7045 113.565V115.483L82.6704 113.565L93.3238 101.42L95.4545 87.7841L101.207 93.3238L109.943 82.4573L107.386 76.0653L91.4062 66.4772L77.5568 79.4744Z" fill="white" stroke="black"/>
<path d="M86.5056 80.1136L83.3096 86.5057L90.767 84.375L93.3238 77.7699L86.5056 80.1136Z" fill="#DE0000" stroke="#DE0000"/>
<path d="M63.4944 79.9005L66.6904 86.2926L59.233 84.1619L56.6762 77.5568L63.4944 79.9005Z" fill="#DE0000" stroke="#DE0000"/>
<path d="M54.1193 40.0567L61.7898 54.5454L50.7102 59.4459L54.1193 40.0567Z" fill="white" stroke="black"/>
</svg>
